<svg width="24" height="24" xmlns="http://www.w3.org/2000/svg"> <path fill="#000000" d="m4.1 8.4c0 0 0 0 0 0 -0.9 1.2-1.4 2.1-2 3.1l-0.1 0.1 0 0c-0.1 0.1 0 0.2 0 0.3 0.3 0.5 2.2 1.1 6.2 1.1 3.1 0 6.3-0.5 6.3-1.4 0-0.9-3.2-1.4-6.3-1.4 -1 0-2 0.1-2.3 0.2 0.3-0.4 1.4-2 1.4-2 0 0 0 0 0 0l0 0c0 0 0 0-0.1 0l-3.3 0zm1.2 3.3c0-0.2 1.2-0.5 3-0.5 1.9 0 3 0.3 3 0.5 0 0.2-1.1 0.5-3 0.5 -1.9 0-3-0.3-3-0.5zM6.4 16.2c0.5 0 15.2 0.5 15.5-4.7 0.3-4.3-10.5-3.9-10.5-3.9 0 0-0.1 0-0.1 0.1 0 0.1 0 0.1 0.1 0.1 3 0 7.9 1.2 7.7 3.8 -0.1 2.1-3.9 4.5-12.7 4.5 0 0-0.1 0-0.1 0.1 0 0 0 0.1 0.1 0.1z"/> <polygon fill="#000000" points="19.6 15.8 20.3 15.8 20.3 15.9 20 15.9 20 16.4 19.9 16.4 19.9 15.9 19.6 15.9 "/> <polygon fill="#000000" points="20.8 16.3 21 15.8 21.1 15.8 21.1 16.4 21 16.4 21 15.9 21 15.9 20.8 16.4 20.7 16.4 20.5 15.9 20.5 16.4 20.4 16.4 20.4 15.8 20.5 15.8 "/> </svg>