<svg width="24" height="24" xmlns="http://www.w3.org/2000/svg"> <path d="m19.9 8.4c0 0.1 0 0.1 0 0.1 0 0.1 0 0.2-0.4 0.2s-0.4-0.1-0.4-0.2c0 0 0-0.3 0-0.4s0-0.3 0-0.4c0-0.1 0-0.2 0.4-0.2s0.4 0.1 0.4 0.2c0 0 0 0.1 0 0.1l0.5 0c0-0.1 0-0.2 0-0.3 0-0.3 0.1-0.5-0.9-0.5 -0.9 0-0.8 0.2-0.9 0.5 0 0.1 0 0.3 0 0.5 0 0.2 0 0.4 0 0.5 0 0.3-0.1 0.5 0.9 0.5 0.9 0 0.8-0.2 0.9-0.5 0 0 0-0.1 0-0.3l-0.5 0z"/> <polygon points="14 7.2 13.5 8.7 13 7.2 12.2 7.2 12.2 9.2 12.7 9.2 12.7 7.7 13.2 9.2 13.7 9.2 14.2 7.7 14.2 9.2 14.7 9.2 14.7 7.2 "/> <polygon points="20.5 7.2 21.9 7.2 21.9 7.7 21.5 7.7 21.5 9.2 21 9.2 21 7.7 20.5 7.7 "/> <polygon points="16.8 9.2 17.3 7.2 18 7.2 18.6 9.2 18.1 9.2 18 8.8 17.4 8.8 17.4 8.4 17.9 8.4 17.7 7.7 17.2 9.2 "/> <path d="m11.1 7.6c0.4 0 0.4 0.1 0.4 0.2 0 0 0 0.3 0 0.4 0 0.1 0 0.3 0 0.4 0 0.1 0 0.2-0.4 0.2s-0.4-0.1-0.4-0.2c0 0 0-0.3 0-0.4s0-0.3 0-0.4c0-0.1 0-0.2 0.4-0.2l0-0.4c-0.9 0-0.8 0.2-0.9 0.5 0 0.1 0 0.3 0 0.5 0 0.2 0 0.4 0 0.5 0 0.3-0.1 0.5 0.9 0.5s0.8-0.2 0.9-0.5c0-0.1 0-0.3 0-0.5 0-0.2 0-0.4 0-0.5 0-0.3 0.1-0.5-0.9-0.5l0 0.4zM9.4 8.4c0 0.1 0 0.1 0 0.1 0 0.1 0 0.2-0.4 0.2s-0.4-0.1-0.4-0.2c0 0 0-0.3 0-0.4s0-0.3 0-0.4c0-0.1 0-0.2 0.4-0.2s0.4 0.1 0.4 0.2c0 0 0 0.1 0 0.1l0.5 0c0-0.1 0-0.2 0-0.3 0-0.3 0.1-0.5-0.9-0.5 -0.9 0-0.8 0.2-0.9 0.5 0 0.1 0 0.3 0 0.5 0 0.2 0 0.4 0 0.5 0 0.3-0.1 0.5 0.9 0.5 0.9 0 0.8-0.2 0.9-0.5 0 0 0-0.1 0-0.3l-0.5 0zM15.9 8.7l-0.3 0 0-0.4 0.3 0c0.4 0 0.4-0.1 0.4-0.2 0 0 0 0 0-0.1s0-0.1 0-0.1c0-0.1 0-0.2-0.4-0.2l-0.3 0 0 1.5 -0.5 0 0-1.9 0.8 0c0.9 0 0.8 0.2 0.9 0.5 0 0 0 0.2 0 0.2 0 0.1 0 0.2 0 0.2 0 0.3 0.1 0.5-0.9 0.5l0 0zM6.4 16.4l-3.1 0c-0.4 0-0.8-0.4-0.8-0.8l0-4.7c0-0.4 0.4-0.8 0.8-0.8l1.9 0c0.2 0 0.4-0.2 0.4-0.4l0-1.9c0-0.1 0.1-0.2 0.2-0.2l1.1 0c0.1 0 0.2 0.1 0.2 0.2l0 8.4c0 0.1-0.1 0.2-0.2 0.2l-0.6 0 0 0.4 0.8 0c0.2 0 0.4-0.2 0.4-0.4l0-8.7c0-0.2-0.2-0.4-0.4-0.4l-1.5 0c-0.2 0-0.4 0.2-0.4 0.4l0 1.9c0 0.1-0.1 0.2-0.2 0.2l-1.8 0c-0.7 0-1.2 0.5-1.2 1.2l0 4.7c0 0.7 0.5 1.2 1.2 1.2l3.1 0 0-0.4 0 0zM5.2 14.7l0-3c0-0.3-0.2-0.5-0.5-0.5 -0.3 0-0.5 0.2-0.5 0.5l0 3.3c0 0.3 0.2 0.5 0.5 0.5 0.3 0 0.5-0.2 0.5-0.5l0-0.2 0.4 0 0 0.2c0 0.5-0.4 0.9-0.9 0.9 -0.5 0-0.9-0.4-0.9-0.9l0-3.3c0-0.5 0.4-0.9 0.9-0.9 0.5 0 0.9 0.4 0.9 0.9l0 3 -0.4 0zM9.3 16.4l-0.6 0c-0.1 0-0.2-0.1-0.2-0.2l0-5.9c0-0.1 0.1-0.2 0.2-0.2l1.1 0c0.1 0 0.2 0.1 0.2 0.2l0 5.9c0 0.1-0.1 0.2-0.2 0.2l-0.6 0 0 0.4 0.7 0c0.2 0 0.4-0.2 0.4-0.4l0-6.3c0-0.2-0.2-0.4-0.4-0.4l-1.5 0c-0.2 0-0.4 0.2-0.4 0.4l0 6.3c0 0.2 0.2 0.4 0.4 0.4l0.7 0 0-0.4 0 0zM14.6 11.3l-1.2 0c-0.4 0-0.7 0.3-0.7 0.7s0.3 0.7 0.7 0.7l1.7 0c0.4 0 0.8 0.4 0.8 0.8l0 2.1c0 0.4-0.4 0.8-0.8 0.8l-3.4 0c-0.1 0-0.2-0.1-0.2-0.2l0-0.8c0-0.1 0.1-0.2 0.2-0.2l2.3 0c0.4 0 0.7-0.3 0.7-0.7s-0.3-0.7-0.7-0.7l-1.7 0c-0.4 0-0.8-0.4-0.8-0.8l0-2.1c0-0.4 0.4-0.8 0.8-0.8l3.1 0c0.1 0 0.2 0.1 0.2 0.2l0 0.8c0 0.1-0.1 0.2-0.2 0.2l-0.8 0 0 0.4 1 0c0.2 0 0.4-0.2 0.4-0.4l0-1.2c0-0.2-0.2-0.4-0.4-0.4l-3.3 0c-0.7 0-1.2 0.5-1.2 1.2l0 2.1c0 0.7 0.5 1.2 1.2 1.2l1.7 0c0.2 0 0.3 0.1 0.3 0.3s-0.1 0.3-0.3 0.3l-2.5 0c-0.2 0-0.4 0.2-0.4 0.4l0 1.2c0 0.2 0.2 0.4 0.4 0.4l3.5 0c0.7 0 1.2-0.5 1.2-1.2l0-2.1c0-0.7-0.5-1.2-1.2-1.2l-1.7 0c-0.2 0-0.3-0.1-0.3-0.3 0-0.2 0.1-0.3 0.3-0.3l1.2 0 0-0.4zM20.8 12.4l0.5 0c0.1 0 0.2-0.1 0.2-0.2l0-1.3c0-0.4-0.4-0.8-0.8-0.8l-2.7 0c-0.4 0-0.8 0.4-0.8 0.8l0 4.7c0 0.4 0.4 0.8 0.8 0.8l2.7 0c0.4 0 0.8-0.4 0.8-0.8l0-1.3c0-0.1-0.1-0.2-0.2-0.2l-1 0c-0.1 0-0.2 0.1-0.2 0.2l0 0.6c0 0.5-0.3 0.9-0.8 0.9s-0.8-0.4-0.8-0.9l0-3.3c0-0.5 0.3-0.9 0.8-0.9s0.8 0.4 0.8 0.9l0 0.6c0 0.1 0.1 0.2 0.2 0.2l0.5 0 0 0.4 -0.6 0c-0.2 0-0.4-0.2-0.4-0.4l0-0.8c0-0.3-0.1-0.5-0.4-0.5s-0.4 0.2-0.4 0.5l0 3.3c0 0.3 0.1 0.5 0.4 0.5s0.4-0.2 0.4-0.5l0-0.8c0-0.2 0.2-0.4 0.4-0.4l1.4 0c0.2 0 0.4 0.2 0.4 0.4l0 1.5c0 0.7-0.5 1.2-1.2 1.2l-2.7 0c-0.7 0-1.2-0.5-1.2-1.2l0-4.7c0-0.7 0.5-1.2 1.2-1.2l2.7 0c0.7 0 1.2 0.5 1.2 1.2l0 1.5c0 0.2-0.2 0.4-0.4 0.4l-0.7 0 0-0.4 0 0z"/> </svg>