<svg width="24" height="24" xmlns="http://www.w3.org/2000/svg"> <path d="m13.4 8.7c0 0-1.4 1.7-1.3 1.8 0.1-0.1-0.5-1.8-0.5-1.8s-0.1-0.4-0.5-1.5l-1.4 0 -3.4 0 -2.5 0 -0.3 1.1 1.9 0 0.5 0c1.2 0 2 0.5 1.8 1.4 -0.2 1-1.3 1.4-2.5 1.4l-0.4 0 0.6-2.4 -1.9 0 -0.8 3.5 2.7 0c2 0 4-1.1 4.3-2.5 0.1-0.3 0.1-0.9-0.1-1.3 0 0 0 0 0-0.1 0 0 0-0.1 0-0.1 0 0 0.1 0 0.1 0 0 0 0 0 0 0.1l1.7 5 4.4-5.1 1.9 0 0.5 0c1.2 0 2 0.5 1.8 1.4 -0.2 1-1.3 1.4-2.5 1.4l-0.4 0 0.6-2.4 -1.9 0 -0.8 3.5 2.7 0c2 0 4-1.1 4.3-2.5 0.3-1.4-1.1-2.5-3.2-2.5l-1.8 0 -2.3 0c-1.1 1.3-1.3 1.5-1.3 1.5l0 0zM11.4 13.4c-5.2 0-9.4 0.6-9.4 1.4 0 0.8 4.2 1.4 9.4 1.4 5.2 0 9.4-0.6 9.4-1.4 0-0.8-4.2-1.4-9.4-1.4zm-0.3 1.8c-1.2 0-2.1-0.2-2.1-0.5 0-0.3 1-0.5 2.1-0.5 1.2 0 2.1 0.2 2.1 0.5 0 0.3-1 0.5-2.1 0.5z"/> <polygon points="19.7 16.1 19.7 16 19.2 16 19.1 16.1 19.4 16.1 19.3 16.8 19.4 16.8 19.5 16.1 19.7 16.1 "/> <polygon points="20.6 16.8 20.6 16 20.5 16 20.2 16.6 20.1 16 20 16 19.7 16.8 19.8 16.8 20 16.2 20.1 16.8 20.5 16.2 20.5 16.8 20.6 16.8 "/> </svg>