<svg width="24" height="24" xmlns="http://www.w3.org/2000/svg"> <path d="m13.4 8.1c0 0-1.4 2.2-1.3 2.4 0.1-0.1-0.5-2.4-0.5-2.4 0 0-0.1-0.5-0.5-2l-1.4 0 -3.4 0 -2.5 0 -0.3 1.4 1.9 0 0.5 0c1.2 0 2 0.7 1.8 1.8 -0.2 1.3-1.3 1.8-2.5 1.8l-0.4 0 0.6-3.1 -1.9 0 -0.8 4.6 2.7 0c2 0 4-1.4 4.3-3.3 0.1-0.4 0.1-1.2-0.1-1.7 0 0 0 0 0-0.1 0 0 0-0.1 0-0.1 0 0 0.1 0 0.1 0 0 0 0 0 0 0.1l1.7 6.6 4.4-6.7 1.9 0 0.5 0c1.2 0 2 0.7 1.8 1.8 -0.2 1.3-1.3 1.8-2.5 1.8l-0.4 0 0.6-3.1 -1.9 0 -0.8 4.6 2.7 0c2 0 4-1.4 4.3-3.3 0.3-1.8-1.1-3.3-3.2-3.3l-1.8 0 -2.3 0c-1.1 1.7-1.3 2-1.3 2l0 0 0 0.1zm-2 6.2c-5.2 0-9.4 0.8-9.4 1.8 0 1 4.2 1.8 9.4 1.8 5.2 0 9.4-0.8 9.4-1.8 0-1-4.2-1.8-9.4-1.8zm-0.3 2.4c-1.2 0-2.1-0.3-2.1-0.7 0-0.4 1-0.7 2.1-0.7 1.2 0 2.1 0.3 2.1 0.7 0 0.4-1 0.7-2.1 0.7z" stroke-width="1.1"/> <polygon points="19.7 17.9 19.7 17.8 19.2 17.8 19.1 17.9 19.4 17.9 19.3 18.6 19.4 18.6 19.5 17.9 19.7 17.9 "/> <polygon points="20.6 18.6 20.6 17.8 20.5 17.8 20.2 18.4 20.1 17.8 20 17.8 19.7 18.6 19.8 18.6 20 18 20.1 18.6 20.5 18 20.5 18.6 20.6 18.6 "/> </svg>