<?xml version="1.0" encoding="utf-8"?><svg xmlns="http://www.w3.org/2000/svg" xmlns:xlink="http://www.w3.org/1999/xlink"><symbol viewBox="0 0 24 24" id="ic_album_24px"><path d="M12 2C6.48 2 2 6.48 2 12s4.48 10 10 10 10-4.48 10-10S17.52 2 12 2zm0 14.5c-2.49 0-4.5-2.01-4.5-4.5S9.51 7.5 12 7.5s4.5 2.01 4.5 4.5-2.01 4.5-4.5 4.5zm0-5.5c-.55 0-1 .45-1 1s.45 1 1 1 1-.45 1-1-.45-1-1-1z"/></symbol><symbol viewBox="0 0 24 24" id="ic_bluetooth_24px"><path d="M17.71 7.71L12 2h-1v7.59L6.41 5 5 6.41 10.59 12 5 17.59 6.41 19 11 14.41V22h1l5.71-5.71-4.3-4.29 4.3-4.29zM13 5.83l1.88 1.88L13 9.59V5.83zm1.88 10.46L13 18.17v-3.76l1.88 1.88z"/></symbol><symbol viewBox="0 0 24 24" id="ic_bluetooth_audio_24px"><path d="M14.24 12.01l2.32 2.32c.28-.72.44-1.51.44-2.33 0-.82-.16-1.59-.43-2.31l-2.33 2.32zm5.29-5.3l-1.26 1.26c.63 1.21.98 2.57.98 4.02s-.36 2.82-.98 4.02l1.2 1.2a9.936 9.936 0 0 0 1.54-5.31c-.01-1.89-.55-3.67-1.48-5.19zm-3.82 1L10 2H9v7.59L4.41 5 3 6.41 8.59 12 3 17.59 4.41 19 9 14.41V22h1l5.71-5.71-4.3-4.29 4.3-4.29zM11 5.83l1.88 1.88L11 9.59V5.83zm1.88 10.46L11 18.17v-3.76l1.88 1.88z"/></symbol><symbol viewBox="0 0 24 24" id="ic_cloud_24px"><path d="M19.35 10.04A7.49 7.49 0 0 0 12 4C9.11 4 6.6 5.64 5.35 8.04A5.994 5.994 0 0 0 0 14c0 3.31 2.69 6 6 6h13c2.76 0 5-2.24 5-5 0-2.64-2.05-4.78-4.65-4.96z"/></symbol><symbol viewBox="0 0 24 24" id="ic_cloud_queue_24px"><path d="M19.35 10.04A7.49 7.49 0 0 0 12 4C9.11 4 6.6 5.64 5.35 8.04A5.994 5.994 0 0 0 0 14c0 3.31 2.69 6 6 6h13c2.76 0 5-2.24 5-5 0-2.64-2.05-4.78-4.65-4.96zM19 18H6c-2.21 0-4-1.79-4-4s1.79-4 4-4h.71C7.37 7.69 9.48 6 12 6c3.04 0 5.5 2.46 5.5 5.5v.5H19c1.66 0 3 1.34 3 3s-1.34 3-3 3z"/></symbol><symbol viewBox="0 0 24 24" id="ic_fiber_dvr_24px"><path d="M17.5 10.5h2v1h-2zm-13 0h2v3h-2zM21 3H3c-1.11 0-2 .89-2 2v14a2 2 0 0 0 2 2h18a2 2 0 0 0 2-2V5c0-1.11-.89-2-2-2zM8 13.5c0 .85-.65 1.5-1.5 1.5H3V9h3.5c.85 0 1.5.65 1.5 1.5v3zm4.62 1.5h-1.5L9.37 9h1.5l1 3.43 1-3.43h1.5l-1.75 6zM21 11.5c0 .6-.4 1.15-.9 1.4L21 15h-1.5l-.85-2H17.5v2H16V9h3.5c.85 0 1.5.65 1.5 1.5v1z"/></symbol><symbol viewBox="0 0 24 24" id="ic_movie_24px"><path d="M18 4l2 4h-3l-2-4h-2l2 4h-3l-2-4H8l2 4H7L5 4H4c-1.1 0-1.99.9-1.99 2L2 18c0 1.1.9 2 2 2h16c1.1 0 2-.9 2-2V4h-4z"/></symbol><symbol viewBox="0 0 24 24" id="ic_radio_24px"><path d="M3.24 6.15C2.51 6.43 2 7.17 2 8v12a2 2 0 0 0 2 2h16a2 2 0 0 0 2-2V8c0-1.11-.89-2-2-2H8.3l8.26-3.34L15.88 1 3.24 6.15zM7 20c-1.66 0-3-1.34-3-3s1.34-3 3-3 3 1.34 3 3-1.34 3-3 3zm13-8h-2v-2h-2v2H4V8h16v4z"/></symbol><symbol viewBox="0 0 24 24" id="ic_rss_feed_24px"><circle cx="6.18" cy="17.82" r="2.18"/><path d="M4 4.44v2.83c7.03 0 12.73 5.7 12.73 12.73h2.83c0-8.59-6.97-15.56-15.56-15.56zm0 5.66v2.83c3.9 0 7.07 3.17 7.07 7.07h2.83c0-5.47-4.43-9.9-9.9-9.9z"/></symbol><symbol viewBox="0 0 24 24" id="ic_settings_input_hdmi_24px"><path d="M18 7V4c0-1.1-.9-2-2-2H8c-1.1 0-2 .9-2 2v3H5v6l3 6v3h8v-3l3-6V7h-1zM8 4h8v3h-2V5h-1v2h-2V5h-1v2H8V4z"/></symbol><symbol viewBox="0 0 24 24" id="ic_storage_24px"><path d="M2 20h20v-4H2v4zm2-3h2v2H4v-2zM2 4v4h20V4H2zm4 3H4V5h2v2zm-4 7h20v-4H2v4zm2-3h2v2H4v-2z"/></symbol><symbol viewBox="0 0 24 24" id="ic_tv_24px"><path d="M21 3H3c-1.1 0-2 .9-2 2v12c0 1.1.9 2 2 2h5v2h8v-2h5c1.1 0 1.99-.9 1.99-2L23 5c0-1.1-.9-2-2-2zm0 14H3V5h18v12z"/></symbol><symbol viewBox="0 0 24 24" id="ic_usb_24px"><path d="M15 7v4h1v2h-3V5h2l-3-4-3 4h2v8H8v-2.07c.7-.37 1.2-1.08 1.2-1.93 0-1.21-.99-2.2-2.2-2.2-1.21 0-2.2.99-2.2 2.2 0 .85.5 1.56 1.2 1.93V13c0 1.11.89 2 2 2h3v3.05c-.71.37-1.2 1.1-1.2 1.95a2.2 2.2 0 0 0 4.4 0c0-.85-.49-1.58-1.2-1.95V15h3c1.11 0 2-.89 2-2v-2h1V7h-4z"/></symbol><symbol viewBox="0 0 24 24" id="ic_videogame_asset_24px"><path d="M21 6H3c-1.1 0-2 .9-2 2v8c0 1.1.9 2 2 2h18c1.1 0 2-.9 2-2V8c0-1.1-.9-2-2-2zm-10 7H8v3H6v-3H3v-2h3V8h2v3h3v2zm4.5 2c-.83 0-1.5-.67-1.5-1.5s.67-1.5 1.5-1.5 1.5.67 1.5 1.5-.67 1.5-1.5 1.5zm4-3c-.83 0-1.5-.67-1.5-1.5S18.67 9 19.5 9s1.5.67 1.5 1.5-.67 1.5-1.5 1.5z"/></symbol><symbol viewBox="0 0 24 24" id="ic_volume_down_24px"><path d="M18.5 12A4.5 4.5 0 0 0 16 7.97v8.05c1.48-.73 2.5-2.25 2.5-4.02zM5 9v6h4l5 5V4L9 9H5z"/></symbol><symbol viewBox="0 0 24 24" id="ic_volume_off_24px"><path d="M16.5 12A4.5 4.5 0 0 0 14 7.97v2.21l2.45 2.45c.03-.2.05-.41.05-.63zm2.5 0c0 .94-.2 1.82-.54 2.64l1.51 1.51A8.796 8.796 0 0 0 21 12c0-4.28-2.99-7.86-7-8.77v2.06c2.89.86 5 3.54 5 6.71zM4.27 3L3 4.27 7.73 9H3v6h4l5 5v-6.73l4.25 4.25c-.67.52-1.42.93-2.25 1.18v2.06a8.99 8.99 0 0 0 3.69-1.81L19.73 21 21 19.73l-9-9L4.27 3zM12 4L9.91 6.09 12 8.18V4z"/></symbol><symbol viewBox="0 0 24 24" id="ic_volume_up_24px"><path d="M3 9v6h4l5 5V4L7 9H3zm13.5 3A4.5 4.5 0 0 0 14 7.97v8.05c1.48-.73 2.5-2.25 2.5-4.02zM14 3.23v2.06c2.89.86 5 3.54 5 6.71s-2.11 5.85-5 6.71v2.06c4.01-.91 7-4.49 7-8.77s-2.99-7.86-7-8.77z"/></symbol></svg>