<?xml version="1.0" encoding="utf-8"?><!DOCTYPE svg PUBLIC "-//W3C//DTD SVG 1.1//EN" "http://www.w3.org/Graphics/SVG/1.1/DTD/svg11.dtd"><svg xmlns="http://www.w3.org/2000/svg" xmlns:xlink="http://www.w3.org/1999/xlink"><symbol viewBox="0 0 24 24" id="album"><path d="M12 2C6.48 2 2 6.48 2 12s4.48 10 10 10 10-4.48 10-10S17.52 2 12 2zm0 14.5c-2.49 0-4.5-2.01-4.5-4.5S9.51 7.5 12 7.5s4.5 2.01 4.5 4.5-2.01 4.5-4.5 4.5zm0-5.5c-.55 0-1 .45-1 1s.45 1 1 1 1-.45 1-1-.45-1-1-1z"/></symbol><symbol viewBox="0 0 24 24" id="blu-ray"><path d="M4.1 8.4c-.9 1.2-1.4 2.1-2 3.1l-.1.1c-.1.1 0 .2 0 .3.3.5 2.2 1.1 6.2 1.1 3.1 0 6.3-.5 6.3-1.4 0-.9-3.2-1.4-6.3-1.4-1 0-2 .1-2.3.2.3-.4 1.4-2 1.4-2H3.9zm1.2 3.3c0-.2 1.2-.5 3-.5 1.9 0 3 .3 3 .5s-1.1.5-3 .5-3-.3-3-.5zm1.1 4.5c.5 0 15.2.5 15.5-4.7.3-4.3-10.5-3.9-10.5-3.9s-.1 0-.1.1 0 .1.1.1c3 0 7.9 1.2 7.7 3.8-.1 2.1-3.9 4.5-12.7 4.5 0 0-.1 0-.1.1 0 0 0 .1.1.1zM19.6 15.8h.7v.1H20v.5h-.1v-.5h-.3zM20.8 16.3l.2-.5h.1v.6H21v-.5l-.2.5h-.1l-.2-.5v.5h-.1v-.6h.1z"/></symbol><symbol viewBox="0 0 24 24" id="bluetooth"><path d="M17.71 7.71L12 2h-1v7.59L6.41 5 5 6.41 10.59 12 5 17.59 6.41 19 11 14.41V22h1l5.71-5.71-4.3-4.29 4.3-4.29zM13 5.83l1.88 1.88L13 9.59V5.83zm1.88 10.46L13 18.17v-3.76l1.88 1.88z"/></symbol><symbol viewBox="0 0 24 24" id="bluetooth-audio"><path d="M14.24 12.01l2.32 2.32c.28-.72.44-1.51.44-2.33 0-.82-.16-1.59-.43-2.31l-2.33 2.32zm5.29-5.3l-1.26 1.26c.63 1.21.98 2.57.98 4.02s-.36 2.82-.98 4.02l1.2 1.2a9.936 9.936 0 0 0 1.54-5.31c-.01-1.89-.55-3.67-1.48-5.19zm-3.82 1L10 2H9v7.59L4.41 5 3 6.41 8.59 12 3 17.59 4.41 19 9 14.41V22h1l5.71-5.71-4.3-4.29 4.3-4.29zM11 5.83l1.88 1.88L11 9.59V5.83zm1.88 10.46L11 18.17v-3.76l1.88 1.88z"/></symbol><symbol viewBox="0 0 24 24" id="cd"><path d="M19.9 8.4v.1c0 .1 0 .2-.4.2s-.4-.1-.4-.2v-.4-.4c0-.1 0-.2.4-.2s.4.1.4.2v.1h.5v-.3c0-.3.1-.5-.9-.5-.9 0-.8.2-.9.5v1c0 .3-.1.5.9.5.9 0 .8-.2.9-.5v-.3h-.5zM14 7.2l-.5 1.5-.5-1.5h-.8v2h.5V7.7l.5 1.5h.5l.5-1.5v1.5h.5v-2zM20.5 7.2h1.4v.5h-.4v1.5H21V7.7h-.5zM16.8 9.2l.5-2h.7l.6 2h-.5l-.1-.4h-.6v-.4h.5l-.2-.7-.5 1.5zM11.1 7.6c.4 0 .4.1.4.2v.8c0 .1 0 .2-.4.2s-.4-.1-.4-.2v-.4-.4c0-.1 0-.2.4-.2v-.4c-.9 0-.8.2-.9.5v1c0 .3-.1.5.9.5s.8-.2.9-.5v-.5-.5c0-.3.1-.5-.9-.5v.4zm-1.7.8v.1c0 .1 0 .2-.4.2s-.4-.1-.4-.2v-.4-.4c0-.1 0-.2.4-.2s.4.1.4.2v.1h.5v-.3c0-.3.1-.5-.9-.5-.9 0-.8.2-.9.5v1c0 .3-.1.5.9.5.9 0 .8-.2.9-.5v-.3h-.5zm6.5.3h-.3v-.4h.3c.4 0 .4-.1.4-.2V8v-.1c0-.1 0-.2-.4-.2h-.3v1.5h-.5V7.3h.8c.9 0 .8.2.9.5v.4c0 .3.1.5-.9.5zm-9.5 7.7H3.3c-.4 0-.8-.4-.8-.8v-4.7c0-.4.4-.8.8-.8h1.9c.2 0 .4-.2.4-.4V7.8c0-.1.1-.2.2-.2h1.1c.1 0 .2.1.2.2v8.4c0 .1-.1.2-.2.2h-.6v.4h.8c.2 0 .4-.2.4-.4V7.7c0-.2-.2-.4-.4-.4H5.6c-.2 0-.4.2-.4.4v1.9c0 .1-.1.2-.2.2H3.2c-.7 0-1.2.5-1.2 1.2v4.7c0 .7.5 1.2 1.2 1.2h3.1v-.4zm-1.2-1.7v-3c0-.3-.2-.5-.5-.5s-.5.2-.5.5V15c0 .3.2.5.5.5s.5-.2.5-.5v-.2h.4v.2c0 .5-.4.9-.9.9s-.9-.4-.9-.9v-3.3c0-.5.4-.9.9-.9s.9.4.9.9v3h-.4zm4.1 1.7h-.6c-.1 0-.2-.1-.2-.2v-5.9c0-.1.1-.2.2-.2h1.1c.1 0 .2.1.2.2v5.9c0 .1-.1.2-.2.2h-.6v.4h.7c.2 0 .4-.2.4-.4v-6.3c0-.2-.2-.4-.4-.4H8.4c-.2 0-.4.2-.4.4v6.3c0 .2.2.4.4.4h.7v-.4zm5.3-5.1h-1.2c-.4 0-.7.3-.7.7s.3.7.7.7h1.7c.4 0 .8.4.8.8v2.1c0 .4-.4.8-.8.8h-3.4c-.1 0-.2-.1-.2-.2v-.8c0-.1.1-.2.2-.2H14c.4 0 .7-.3.7-.7s-.3-.7-.7-.7h-1.7c-.4 0-.8-.4-.8-.8v-2.1c0-.4.4-.8.8-.8h3.1c.1 0 .2.1.2.2v.8c0 .1-.1.2-.2.2h-.8v.4h1c.2 0 .4-.2.4-.4v-1.2c0-.2-.2-.4-.4-.4h-3.3c-.7 0-1.2.5-1.2 1.2V13c0 .7.5 1.2 1.2 1.2H14c.2 0 .3.1.3.3s-.1.3-.3.3h-2.5c-.2 0-.4.2-.4.4v1.2c0 .2.2.4.4.4H15c.7 0 1.2-.5 1.2-1.2v-2.1c0-.7-.5-1.2-1.2-1.2h-1.7c-.2 0-.3-.1-.3-.3 0-.2.1-.3.3-.3h1.2v-.4zm6.2 1.1h.5c.1 0 .2-.1.2-.2v-1.3c0-.4-.4-.8-.8-.8H18c-.4 0-.8.4-.8.8v4.7c0 .4.4.8.8.8h2.7c.4 0 .8-.4.8-.8v-1.3c0-.1-.1-.2-.2-.2h-1c-.1 0-.2.1-.2.2v.6c0 .5-.3.9-.8.9s-.8-.4-.8-.9v-3.3c0-.5.3-.9.8-.9s.8.4.8.9v.6c0 .1.1.2.2.2h.5v.4h-.6c-.2 0-.4-.2-.4-.4v-.8c0-.3-.1-.5-.4-.5s-.4.2-.4.5v3.3c0 .3.1.5.4.5s.4-.2.4-.5v-.8c0-.2.2-.4.4-.4h1.4c.2 0 .4.2.4.4v1.5c0 .7-.5 1.2-1.2 1.2h-2.7c-.7 0-1.2-.5-1.2-1.2v-4.7c0-.7.5-1.2 1.2-1.2h2.7c.7 0 1.2.5 1.2 1.2v1.5c0 .2-.2.4-.4.4h-.7v-.4z"/></symbol><symbol viewBox="0 0 24 24" id="cloud"><path d="M19.35 10.04A7.49 7.49 0 0 0 12 4C9.11 4 6.6 5.64 5.35 8.04A5.994 5.994 0 0 0 0 14c0 3.31 2.69 6 6 6h13c2.76 0 5-2.24 5-5 0-2.64-2.05-4.78-4.65-4.96z"/></symbol><symbol viewBox="0 0 24 24" id="cloud-queue"><path d="M19.35 10.04A7.49 7.49 0 0 0 12 4C9.11 4 6.6 5.64 5.35 8.04A5.994 5.994 0 0 0 0 14c0 3.31 2.69 6 6 6h13c2.76 0 5-2.24 5-5 0-2.64-2.05-4.78-4.65-4.96zM19 18H6c-2.21 0-4-1.79-4-4s1.79-4 4-4h.71C7.37 7.69 9.48 6 12 6c3.04 0 5.5 2.46 5.5 5.5v.5H19c1.66 0 3 1.34 3 3s-1.34 3-3 3z"/></symbol><symbol viewBox="0 0 24 24" id="dvd"><path d="M13.4 8.1s-1.4 2.2-1.3 2.4c.1-.1-.5-2.4-.5-2.4s-.1-.5-.5-2H3.8l-.3 1.4h2.4c1.2 0 2 .7 1.8 1.8-.2 1.3-1.3 1.8-2.5 1.8h-.4L5.4 8H3.5l-.8 4.6h2.7c2 0 4-1.4 4.3-3.3.1-.4.1-1.2-.1-1.7v-.1-.1h.1v.1l1.7 6.6 4.4-6.7h2.4c1.2 0 2 .7 1.8 1.8-.2 1.3-1.3 1.8-2.5 1.8h-.4l.6-3.1h-1.9l-.8 4.6h2.7c2 0 4-1.4 4.3-3.3.3-1.8-1.1-3.3-3.2-3.3h-4.1c-1.1 1.7-1.3 2-1.3 2V8zm-2 6.2c-5.2 0-9.4.8-9.4 1.8s4.2 1.8 9.4 1.8 9.4-.8 9.4-1.8-4.2-1.8-9.4-1.8zm-.3 2.4c-1.2 0-2.1-.3-2.1-.7 0-.4 1-.7 2.1-.7 1.2 0 2.1.3 2.1.7 0 .4-1 .7-2.1.7zM19.7 17.9v-.1h-.5l-.1.1h.3l-.1.7h.1l.1-.7h.2zM20.6 18.6v-.8h-.1l-.3.6-.1-.6H20l-.3.8h.1l.2-.6.1.6.4-.6v.6h.1z"/></symbol><symbol viewBox="0 0 24 24" id="dvr"><path d="M17.5 10.5h2v1h-2zm-13 0h2v3h-2zM21 3H3c-1.11 0-2 .89-2 2v14a2 2 0 0 0 2 2h18a2 2 0 0 0 2-2V5c0-1.11-.89-2-2-2zM8 13.5c0 .85-.65 1.5-1.5 1.5H3V9h3.5c.85 0 1.5.65 1.5 1.5v3zm4.62 1.5h-1.5L9.37 9h1.5l1 3.43 1-3.43h1.5l-1.75 6zM21 11.5c0 .6-.4 1.15-.9 1.4L21 15h-1.5l-.85-2H17.5v2H16V9h3.5c.85 0 1.5.65 1.5 1.5v1z"/></symbol><symbol viewBox="0 0 24 24" id="hdmi"><path d="M18 7V4c0-1.1-.9-2-2-2H8c-1.1 0-2 .9-2 2v3H5v6l3 6v3h8v-3l3-6V7h-1zM8 4h8v3h-2V5h-1v2h-2V5h-1v2H8V4z"/></symbol><symbol viewBox="0 0 24 24" id="movie"><path d="M18 4l2 4h-3l-2-4h-2l2 4h-3l-2-4H8l2 4H7L5 4H4c-1.1 0-1.99.9-1.99 2L2 18c0 1.1.9 2 2 2h16c1.1 0 2-.9 2-2V4h-4z"/></symbol><symbol viewBox="0 0 24 24" id="pencil"><path d="M3 17.25V21h3.75L17.81 9.94l-3.75-3.75L3 17.25zM20.71 7.04a.996.996 0 0 0 0-1.41l-2.34-2.34a.996.996 0 0 0-1.41 0l-1.83 1.83 3.75 3.75 1.83-1.83z"/></symbol><symbol viewBox="0 0 24 24" id="play"><path d="M8 5v14l11-7z"/></symbol><symbol viewBox="0 0 24 24" id="power"><path d="M0 0h24v24H0z" fill="none"/><path d="M13 3h-2v10h2V3zm4.83 2.17l-1.42 1.42A6.92 6.92 0 0 1 19 12c0 3.87-3.13 7-7 7A6.995 6.995 0 0 1 7.58 6.58L6.17 5.17A8.932 8.932 0 0 0 3 12a9 9 0 0 0 18 0c0-2.74-1.23-5.18-3.17-6.83z"/></symbol><symbol viewBox="0 0 24 24" id="radio"><path d="M3.24 6.15C2.51 6.43 2 7.17 2 8v12a2 2 0 0 0 2 2h16a2 2 0 0 0 2-2V8c0-1.11-.89-2-2-2H8.3l8.26-3.34L15.88 1 3.24 6.15zM7 20c-1.66 0-3-1.34-3-3s1.34-3 3-3 3 1.34 3 3-1.34 3-3 3zm13-8h-2v-2h-2v2H4V8h16v4z"/></symbol><symbol viewBox="0 0 24 24" id="rss-feed"><circle cx="6.18" cy="17.82" r="2.18"/><path d="M4 4.44v2.83c7.03 0 12.73 5.7 12.73 12.73h2.83c0-8.59-6.97-15.56-15.56-15.56zm0 5.66v2.83c3.9 0 7.07 3.17 7.07 7.07h2.83c0-5.47-4.43-9.9-9.9-9.9z"/></symbol><symbol viewBox="0 0 24 24" id="satellite"><path d="M11.62 1l5.66 5.67-2.12 2.12-2.12-2.12-1.42 1.42 2.33 2.32-1.16 1.17.45.46a2.5 2.5 0 0 1 2.83.5l-3.53 3.53a2.5 2.5 0 0 1-.5-2.83l-.46-.45-1.17 1.16-2.32-2.33-1.42 1.42 2.12 2.12-2.12 2.12L1 11.62 3.14 9.5l2.12 2.12 1.41-1.41-2.83-2.83c-.78-.78-.78-2.05 0-2.83l.71-.71c.78-.78 2.05-.78 2.83 0l2.83 2.83 1.41-1.41L9.5 3.14 11.62 1M18 14a4 4 0 0 1-4 4v-2a2 2 0 0 0 2-2h2m4 0a8 8 0 0 1-8 8v-2a6 6 0 0 0 6-6h2z"/></symbol><symbol viewBox="0 0 24 24" id="save"><path d="M17 3H5a2 2 0 0 0-2 2v14a2 2 0 0 0 2 2h14c1.1 0 2-.9 2-2V7l-4-4zm-5 16c-1.66 0-3-1.34-3-3s1.34-3 3-3 3 1.34 3 3-1.34 3-3 3zm3-10H5V5h10v4z"/></symbol><symbol viewBox="0 0 24 24" id="settings"><path d="M19.43 12.98c.04-.32.07-.64.07-.98s-.03-.66-.07-.98l2.11-1.65c.19-.15.24-.42.12-.64l-2-3.46c-.12-.22-.39-.3-.61-.22l-2.49 1c-.52-.4-1.08-.73-1.69-.98l-.38-2.65A.488.488 0 0 0 14 2h-4c-.25 0-.46.18-.49.42l-.38 2.65c-.61.25-1.17.59-1.69.98l-2.49-1c-.23-.09-.49 0-.61.22l-2 3.46c-.13.22-.07.49.12.64l2.11 1.65c-.04.32-.07.65-.07.98s.03.66.07.98l-2.11 1.65c-.19.15-.24.42-.12.64l2 3.46c.12.22.39.3.61.22l2.49-1c.52.4 1.08.73 1.69.98l.38 2.65c.03.24.24.42.49.42h4c.25 0 .46-.18.49-.42l.38-2.65c.61-.25 1.17-.59 1.69-.98l2.49 1c.23.09.49 0 .61-.22l2-3.46c.12-.22.07-.49-.12-.64l-2.11-1.65zM12 15.5c-1.93 0-3.5-1.57-3.5-3.5s1.57-3.5 3.5-3.5 3.5 1.57 3.5 3.5-1.57 3.5-3.5 3.5z"/></symbol><symbol viewBox="0 0 24 24" id="spotify"><path d="M17.9 10.9C14.7 9 9.35 8.8 6.3 9.75c-.5.15-1-.15-1.15-.6-.15-.5.15-1 .6-1.15 3.55-1.05 9.4-.85 13.1 1.35.45.25.6.85.35 1.3-.25.35-.85.5-1.3.25m-.1 2.8c-.25.35-.7.5-1.05.25-2.7-1.65-6.8-2.15-9.95-1.15-.4.1-.85-.1-.95-.5-.1-.4.1-.85.5-.95 3.65-1.1 8.15-.55 11.25 1.35.3.15.45.65.2 1m-1.2 2.75c-.2.3-.55.4-.85.2-2.35-1.45-5.3-1.75-8.8-.95-.35.1-.65-.15-.75-.45-.1-.35.15-.65.45-.75 3.8-.85 7.1-.5 9.7 1.1.35.15.4.55.25.85M12 2A10 10 0 0 0 2 12a10 10 0 0 0 10 10 10 10 0 0 0 10-10A10 10 0 0 0 12 2z"/></symbol><symbol viewBox="0 0 24 24" id="storage"><path d="M2 20h20v-4H2v4zm2-3h2v2H4v-2zM2 4v4h20V4H2zm4 3H4V5h2v2zm-4 7h20v-4H2v4zm2-3h2v2H4v-2z"/></symbol><symbol viewBox="0 0 24 24" id="tv"><path d="M21 3H3c-1.1 0-2 .9-2 2v12c0 1.1.9 2 2 2h5v2h8v-2h5c1.1 0 1.99-.9 1.99-2L23 5c0-1.1-.9-2-2-2zm0 14H3V5h18v12z"/></symbol><symbol viewBox="0 0 24 24" id="usb"><path d="M15 7v4h1v2h-3V5h2l-3-4-3 4h2v8H8v-2.07c.7-.37 1.2-1.08 1.2-1.93 0-1.21-.99-2.2-2.2-2.2-1.21 0-2.2.99-2.2 2.2 0 .85.5 1.56 1.2 1.93V13c0 1.11.89 2 2 2h3v3.05c-.71.37-1.2 1.1-1.2 1.95a2.2 2.2 0 0 0 4.4 0c0-.85-.49-1.58-1.2-1.95V15h3c1.11 0 2-.89 2-2v-2h1V7h-4z"/></symbol><symbol viewBox="0 0 24 24" id="videogame"><path d="M21 6H3c-1.1 0-2 .9-2 2v8c0 1.1.9 2 2 2h18c1.1 0 2-.9 2-2V8c0-1.1-.9-2-2-2zm-10 7H8v3H6v-3H3v-2h3V8h2v3h3v2zm4.5 2c-.83 0-1.5-.67-1.5-1.5s.67-1.5 1.5-1.5 1.5.67 1.5 1.5-.67 1.5-1.5 1.5zm4-3c-.83 0-1.5-.67-1.5-1.5S18.67 9 19.5 9s1.5.67 1.5 1.5-.67 1.5-1.5 1.5z"/></symbol><symbol viewBox="0 0 24 24" id="volume-down"><path d="M18.5 12A4.5 4.5 0 0 0 16 7.97v8.05c1.48-.73 2.5-2.25 2.5-4.02zM5 9v6h4l5 5V4L9 9H5z"/></symbol><symbol viewBox="0 0 24 24" id="volume-off"><path d="M16.5 12A4.5 4.5 0 0 0 14 7.97v2.21l2.45 2.45c.03-.2.05-.41.05-.63zm2.5 0c0 .94-.2 1.82-.54 2.64l1.51 1.51A8.796 8.796 0 0 0 21 12c0-4.28-2.99-7.86-7-8.77v2.06c2.89.86 5 3.54 5 6.71zM4.27 3L3 4.27 7.73 9H3v6h4l5 5v-6.73l4.25 4.25c-.67.52-1.42.93-2.25 1.18v2.06a8.99 8.99 0 0 0 3.69-1.81L19.73 21 21 19.73l-9-9L4.27 3zM12 4L9.91 6.09 12 8.18V4z"/></symbol><symbol viewBox="0 0 24 24" id="volume-up"><path d="M3 9v6h4l5 5V4L7 9H3zm13.5 3A4.5 4.5 0 0 0 14 7.97v8.05c1.48-.73 2.5-2.25 2.5-4.02zM14 3.23v2.06c2.89.86 5 3.54 5 6.71s-2.11 5.85-5 6.71v2.06c4.01-.91 7-4.49 7-8.77s-2.99-7.86-7-8.77z"/></symbol></svg>